# Blender v2.79 (sub 0) OBJ File: ''
# www.blender.org
mtllib Button1.mtl
o Cube.002_Cube.006
v -0.203241 0.000000 -0.203241
v -0.203241 0.000000 0.203241
v -0.203241 0.042310 -0.203241
v -0.203241 0.042310 0.203241
v 0.203241 0.000000 -0.203241
v 0.203241 0.000000 0.203241
v 0.203241 0.042310 -0.203241
v 0.203241 0.042310 0.203241
v -0.126954 0.042310 -0.126954
v -0.126954 0.042310 0.126954
v 0.126955 0.042310 -0.126954
v 0.126955 0.042310 0.126954
vn -1.0000 0.0000 0.0000
vn 0.0000 1.0000 0.0000
vn 1.0000 0.0000 0.0000
vn 0.0000 -1.0000 0.0000
vn 0.0000 0.0000 1.0000
usemtl None
s off
f 1//1 2//1 4//1 3//1
f 3//2 4//2 8//2 7//2
f 7//3 8//3 6//3 5//3
f 9//4 11//4 12//4 10//4
f 8//5 4//5 2//5 6//5
