# Blender v2.79 (sub 0) OBJ File: ''
# www.blender.org
mtllib Button2.mtl
o Cube.003_Cube.007
v -0.126954 0.042310 -0.126954
v -0.126954 0.042310 0.126954
v 0.126954 0.042310 -0.126954
v 0.126954 0.042310 0.126954
v -0.126954 0.097014 0.126954
v -0.126954 0.097014 -0.126954
v 0.126954 0.097014 -0.126954
v 0.126954 0.097014 0.126954
vn 0.0000 1.0000 0.0000
vn 1.0000 0.0000 0.0000
vn 0.0000 0.0000 -1.0000
vn -1.0000 0.0000 0.0000
vn 0.0000 0.0000 1.0000
usemtl None
s off
f 6//1 5//1 8//1 7//1
f 4//2 3//2 7//2 8//2
f 3//3 1//3 6//3 7//3
f 1//4 2//4 5//4 6//4
f 2//5 4//5 8//5 5//5
