# Blender v2.79 (sub 0) OBJ File: ''
# www.blender.org
mtllib Cube.mtl
o Cube
v 1.000000 -1.000000 1.000000
v -1.000000 -1.000000 1.000000
v -1.000000 -1.000000 -1.000000
v 1.000000 1.000000 -0.999999
v 0.999999 1.000000 1.000001
v -1.000000 1.000000 1.000000
v -1.000000 1.000000 -1.000000
v 1.000000 -1.000000 -1.000000
vn 0.0000 -1.0000 0.0000
vn 0.0000 1.0000 0.0000
vn 1.0000 -0.0000 0.0000
vn 0.0000 -0.0000 1.0000
vn -1.0000 -0.0000 -0.0000
vn 0.0000 0.0000 -1.0000
usemtl Material
s off
f 1//1 3//1 8//1
f 7//2 5//2 4//2
f 4//3 1//3 8//3
f 5//4 2//4 1//4
f 2//5 7//5 3//5
f 8//6 7//6 4//6
f 1//1 2//1 3//1
f 7//2 6//2 5//2
f 4//3 5//3 1//3
f 5//4 6//4 2//4
f 2//5 6//5 7//5
f 8//6 3//6 7//6
