# Blender v2.79 (sub 0) OBJ File: ''
# www.blender.org
mtllib Scarecrow.mtl
o Circle.001
v 0.000000 0.128006 1.915333
v -0.065975 0.013735 1.915333
v 0.065975 0.013735 1.915333
v 0.000000 0.128006 2.109459
v -0.065975 0.013735 2.109459
v 0.065975 0.013735 2.109459
v -0.173682 -0.121856 2.109459
v -0.173682 -0.121856 2.456822
v -0.173682 0.225507 2.109459
v -0.173682 0.225507 2.456822
v 0.173682 -0.121856 2.109459
v 0.173682 -0.121856 2.456822
v 0.173682 0.225507 2.109459
v 0.173682 0.225507 2.456822
v -0.268733 -0.028404 1.680310
v -0.268733 -0.028404 1.840768
v -0.268733 0.132054 1.680310
v -0.268733 0.132054 1.840768
v -0.827775 -0.028403 1.287148
v -0.827775 -0.028403 1.447606
v -0.827775 0.132054 1.287148
v -0.827775 0.132054 1.447606
v 0.268733 -0.028404 1.680310
v 0.268733 -0.028404 1.840768
v 0.268733 0.132054 1.680310
v 0.268733 0.132054 1.840768
v 0.827775 -0.028403 1.287148
v 0.827775 -0.028403 1.447606
v 0.827775 0.132054 1.287148
v 0.827775 0.132054 1.447606
v -0.268733 -0.216907 0.592385
v -0.268733 -0.216907 1.915333
v -0.268733 0.320558 0.592385
v -0.268733 0.320558 1.915333
v 0.268733 -0.216907 0.592385
v 0.268733 -0.216907 1.915333
v 0.268733 0.320558 0.592385
v 0.268733 0.320558 1.915333
v 0.000000 0.128006 -0.000000
v -0.065975 0.013735 -0.000000
v 0.065975 0.013735 -0.000000
v 0.000000 0.128006 0.592385
v -0.065975 0.013735 0.592385
v 0.065975 0.013735 0.592385
vn 0.8660 0.5000 0.0000
vn 0.0000 -1.0000 0.0000
vn -0.8660 0.5000 0.0000
vn -1.0000 0.0000 0.0000
vn 0.0000 1.0000 0.0000
vn 1.0000 0.0000 0.0000
vn 0.0000 0.0000 -1.0000
vn 0.0000 0.0000 1.0000
vn 0.5753 0.0000 -0.8180
vn -0.5753 0.0000 0.8180
vn -0.5753 0.0000 -0.8180
vn 0.5753 0.0000 0.8180
usemtl None
s off
f 1//1 4//1 6//1 3//1
f 3//2 6//2 5//2 2//2
f 2//3 5//3 4//3 1//3
f 7//4 8//4 10//4 9//4
f 9//5 10//5 14//5 13//5
f 13//6 14//6 12//6 11//6
f 11//2 12//2 8//2 7//2
f 9//7 13//7 11//7 7//7
f 14//8 10//8 8//8 12//8
f 17//5 21//5 22//5 18//5
f 21//4 19//4 20//4 22//4
f 19//2 15//2 16//2 20//2
f 17//9 15//9 19//9 21//9
f 22//10 20//10 16//10 18//10
f 25//5 26//5 30//5 29//5
f 29//6 30//6 28//6 27//6
f 27//2 28//2 24//2 23//2
f 25//11 29//11 27//11 23//11
f 30//12 26//12 24//12 28//12
f 31//4 32//4 34//4 33//4
f 33//5 34//5 38//5 37//5
f 37//6 38//6 36//6 35//6
f 35//2 36//2 32//2 31//2
f 33//7 37//7 35//7 31//7
f 38//8 34//8 32//8 36//8
f 39//1 42//1 44//1 41//1
f 41//2 44//2 43//2 40//2
f 40//3 43//3 42//3 39//3
