# Blender v2.79 (sub 0) OBJ File: 'Dmowskiego.blend'
# www.blender.org
mtllib Table.mtl
o Cube.029_Cube.036
v -0.600000 0.350000 0.780000
v 0.600000 0.350000 0.780000
v -0.600000 -0.350000 0.780000
v 0.600000 -0.350000 0.780000
v 0.600000 0.350000 0.732756
v -0.600000 0.350000 0.732756
v 0.600000 -0.350000 0.732756
v -0.600000 -0.350000 0.732756
v -0.579057 0.328427 0.732756
v 0.579057 0.328427 0.732756
v -0.579057 -0.328427 0.732756
v 0.579057 -0.328427 0.732756
v 0.579057 -0.261823 0.732756
v 0.579057 0.261824 0.732756
v -0.579057 0.261824 0.732756
v -0.579057 -0.261823 0.732756
v 0.516445 0.328427 0.732756
v -0.516445 0.328427 0.732756
v -0.516445 -0.328427 0.732756
v 0.516445 -0.328427 0.732756
v 0.516445 0.261824 0.732756
v -0.516445 0.261824 0.732756
v 0.516445 -0.261823 0.732756
v -0.516445 -0.261823 0.732756
v -0.516445 0.328427 0.000000
v -0.579057 0.328427 0.000000
v 0.579057 0.261824 0.000000
v 0.579057 0.328427 0.000000
v 0.516445 -0.328427 0.000000
v 0.579057 -0.328427 0.000000
v -0.579057 -0.261823 0.000000
v -0.579057 -0.328427 0.000000
v 0.579057 -0.261823 0.000000
v -0.579057 0.261824 0.000000
v -0.516445 0.261824 0.000000
v -0.516445 -0.261823 0.000000
v 0.516445 0.328427 0.000000
v -0.516445 -0.328427 0.000000
v 0.516445 0.261824 0.000000
v 0.516445 -0.261823 0.000000
vt -5.946640 -4.611138
vt -2.084643 -4.611138
vt -2.084642 -3.530059
vt -5.946640 -3.530059
vt 1.777360 -4.611139
vt 1.777360 -7.190132
vt 5.639359 -7.190132
vt 5.639359 -4.611139
vt -5.946640 -7.190132
vt -2.084642 -7.190132
vt -2.084640 -4.611139
vt -5.946639 -4.611138
vt -2.084640 -7.190132
vt 1.777358 -7.190132
vt 1.777359 -4.611139
vt -2.084639 -4.611139
vt 1.777358 -3.530059
vt -2.084640 -3.530059
vt 5.639359 -4.611139
vt 5.639359 -7.190132
vt 9.501357 -7.190132
vt 9.501357 -4.611139
vt 9.904393 -7.190132
vt 9.904416 32.809868
vt 9.702910 32.809868
vt 9.702888 -7.190132
vt 10.307495 32.809868
vt 10.307476 -7.190132
vt 10.508981 -7.190132
vt 10.509002 32.809868
vt -8.151481 -7.190132
vt -8.151460 32.809860
vt -8.518919 32.809860
vt -8.518941 -7.190132
vt 10.509021 32.809860
vt 10.509002 -7.190132
vt 10.710505 -7.190132
vt 10.710527 32.809860
vt 10.912072 32.809860
vt 10.912053 -7.190132
vt 11.113557 -7.190132
vt 11.113579 32.809860
vt -8.518962 -7.190132
vt -8.518941 32.809860
vt -8.886400 32.809860
vt -8.886422 -7.190132
vt -7.416528 -7.190132
vt -7.416515 32.809860
vt -7.783975 32.809860
vt -7.783987 -7.190132
vt -7.049047 -7.190132
vt -7.049056 32.809860
vt -7.416515 32.809860
vt -7.416506 -7.190132
vt -5.946640 -7.190132
vt -5.946650 32.809860
vt -6.314109 32.809860
vt -6.314100 -7.190132
vt 10.710546 32.809868
vt 10.710527 -7.190132
vt 10.912032 -7.190132
vt 10.912053 32.809868
vt 10.105923 -7.190132
vt 10.105945 32.809860
vt 9.904440 32.809860
vt 9.904417 -7.190132
vt 10.307452 -7.190132
vt 10.307476 32.809860
vt 10.105968 32.809860
vt 10.105947 -7.190132
vt -7.783999 -7.190132
vt -7.783987 32.809860
vt -8.151447 32.809860
vt -8.151460 -7.190132
vt 9.702864 -7.190132
vt 9.702887 32.809868
vt 9.501381 32.809868
vt 9.501357 -7.190132
vt -6.314109 -7.190132
vt -6.314118 32.809860
vt -6.681578 32.809860
vt -6.681569 -7.190132
vt -6.681578 -7.190132
vt -6.681587 32.809860
vt -7.049047 32.809860
vt -7.049037 -7.190132
vn 0.0000 0.0000 1.0000
vn 0.0000 1.0000 0.0000
vn 1.0000 0.0000 0.0000
vn -1.0000 0.0000 0.0000
vn 0.0000 0.0000 -1.0000
vn 0.0000 -1.0000 0.0000
usemtl DrewnoSzafka
s off
f 3/1/1 4/2/1 2/3/1 1/4/1
f 2/5/2 5/6/2 6/7/2 1/8/2
f 2/9/3 4/10/3 7/11/3 5/12/3
f 3/13/4 1/14/4 6/15/4 8/16/4
f 8/16/5 6/15/5 5/17/5 7/18/5
f 7/19/6 4/20/6 3/21/6 8/22/6
f 10/23/2 28/24/2 37/25/2 17/26/2
f 11/27/6 32/28/6 38/29/6 19/30/6
f 16/31/4 31/32/4 32/33/4 11/34/4
f 15/35/6 34/36/6 35/37/6 22/38/6
f 21/39/6 39/40/6 27/41/6 14/42/6
f 17/43/4 37/44/4 39/45/4 21/46/4
f 9/47/4 26/48/4 34/49/4 15/50/4
f 12/51/3 30/52/3 33/53/3 13/54/3
f 14/55/3 27/56/3 28/57/3 10/58/3
f 20/59/6 29/60/6 30/61/6 12/62/6
f 24/63/2 36/64/2 31/65/2 16/66/2
f 13/67/2 33/68/2 40/69/2 23/70/2
f 23/71/4 40/72/4 29/73/4 20/74/4
f 18/75/2 25/76/2 26/77/2 9/78/2
f 19/79/3 38/80/3 36/81/3 24/82/3
f 22/83/3 35/84/3 25/85/3 18/86/3
