# Blender v2.79 (sub 0) OBJ File: ''
# www.blender.org
mtllib Target.mtl
o Plane
v -0.472893 0.000000 1.977107
v 0.472893 0.000000 1.977107
v -0.472893 -0.000000 2.922893
v 0.472893 -0.000000 2.922893
v -0.094174 -0.000000 2.922893
v 0.094174 -0.000000 2.922893
v -0.094174 -0.000000 3.450000
v 0.094174 -0.000000 3.450000
v -0.266415 -0.029509 2.183585
v 0.266415 -0.029509 2.183585
v -0.266415 -0.029509 2.716415
v 0.266415 -0.029509 2.716415
v -0.088593 -0.057438 2.361407
v 0.088593 -0.057438 2.361407
v -0.088593 -0.057438 2.538593
v 0.088593 -0.057438 2.538593
vn 0.0000 -1.0000 -0.0000
usemtl None
s off
f 1//1 2//1 4//1 3//1
f 6//1 8//1 7//1 5//1
f 9//1 10//1 12//1 11//1
f 13//1 14//1 16//1 15//1
